# xmcd
# 
# Track frame offsets:
#     150
#     10535
#     24297
#     38185
#     50110
#     59282
#     71657
#     87510
#     96770
#     109915
#     119900
#     133640
#     146080
#     157645
#     170245
#     181407
#     195890
#     208790
#     222515
#     233202
#     252542
# 
# Disc length: 3503
# 
# Revision: 4
# Processed by: cddbd v1.5.2PL0 Copyright (c) Steve Scherf et al.
# Submitted via: BonkEnc v1.0
# 
DISCID=370dad15
DTITLE=Various Artist - Country Stars on CD #2
DYEAR=0
DGENRE=
TTITLE0=George Jones - Walk Through This World With Me
TTITLE1=Webb Pierce - Back Street Affair
TTITLE2=Claude King - I Wonder Who She Missed Me With Today
TTITLE3=Johnny Paycheck - Take This Job And Shove It
TTITLE4=Mac Wiseman - Jimmy Brown, The Newsboy
TTITLE5=Alabama - Lovin' You Is Killin' Me
TTITLE6=John Darrell - Lucille
TTITLE7=Jerry Lee Lewis - One Minute Past Eternity
TTITLE8=Mike and Mickey - We Don't Want The World
TTITLE9=Mel Tillis - Stateside
TTITLE10=Ben Colder - Fifteen Beers Ago
TTITLE11=Tex Ritter - High Noon
TTITLE12=Jimmie Davis - Nobody's Darling But Mine
TTITLE13=Leroy Van Dyke - The Auctioneer
TTITLE14=Wanda Jackson - The Last Days Of Love
TTITLE15=Mel Street - Borrowed Angel
TTITLE16=Dottie West - I Fall To Pieces
TTITLE17=Narvel Felts - Drift Away
TTITLE18=Hank Locklin - Please Help Me I'm Falling
TTITLE19=Alabama - I Wanna Be With You Tonight
TTITLE20=Oak Ridge Boys - Golden Hills Ahead
EXTD=
EXTT0=
EXTT1=
EXTT2=
EXTT3=
EXTT4=
EXTT5=
EXTT6=
EXTT7=
EXTT8=
EXTT9=
EXTT10=
EXTT11=
EXTT12=
EXTT13=
EXTT14=
EXTT15=
EXTT16=
EXTT17=
EXTT18=
EXTT19=
EXTT20=
PLAYORDER=
